<svg width="361" height="60" viewBox="0 0 361 60" fill="none" xmlns="http://www.w3.org/2000/svg">
<path d="M35.9775 33.1147C35.9775 37.564 34.4618 41.1626 31.4302 43.9106C28.4204 46.6369 24.4837 48 19.6201 48H0.25293V0.79248H31.6265V8.93848H10.1328V18.5239H19.293C24.2438 18.5239 28.2568 19.8652 31.332 22.5479C34.429 25.2305 35.9775 28.7528 35.9775 33.1147ZM10.1328 40.1157H17.1665C19.9364 40.1157 22.0737 39.516 23.5786 38.3164C25.1053 37.1169 25.8687 35.383 25.8687 33.1147C25.8687 30.8465 25.1053 29.1017 23.5786 27.8804C22.0737 26.659 19.9255 26.0483 17.1338 26.0483H10.1328V40.1157ZM52.9225 48H43.5661V12.9297H52.9225V34.8486H53.1842L67.1208 12.9297H76.4772V48H67.1208V25.8193H66.859L52.9225 48ZM113.476 43.9106C110.358 47.1385 106.126 48.7524 100.783 48.7524C95.4396 48.7524 91.2085 47.1276 88.0897 43.8779C84.9709 40.6283 83.4114 36.1463 83.4114 30.4321C83.4114 24.7834 84.9818 20.3341 88.1224 17.0845C91.2848 13.813 95.505 12.1772 100.783 12.1772C106.083 12.1772 110.303 13.813 113.444 17.0845C116.584 20.3341 118.155 24.7834 118.155 30.4321C118.155 36.1681 116.595 40.661 113.476 43.9106ZM100.783 41.457C103.138 41.457 105.003 40.4974 106.377 38.5781C107.751 36.6589 108.438 33.9544 108.438 30.4648C108.438 27.0189 107.751 24.3254 106.377 22.3843C105.003 20.4432 103.138 19.4727 100.783 19.4727C98.4276 19.4727 96.5519 20.4432 95.1561 22.3843C93.7821 24.3254 93.095 27.0189 93.095 30.4648C93.095 33.9544 93.7821 36.6589 95.1561 38.5781C96.5301 40.4974 98.4057 41.457 100.783 41.457ZM149.461 20.127H134.543V48H125.023V12.9297H149.461V20.127ZM176.81 12.3735C181.259 12.3735 184.759 13.9766 187.311 17.1826C189.885 20.3887 191.172 24.8161 191.172 30.4648C191.172 36.0918 189.907 40.5192 187.377 43.7471C184.847 46.9531 181.379 48.5562 176.973 48.5562C174.465 48.5562 172.251 47.9891 170.332 46.855C168.435 45.6991 167.017 44.1178 166.079 42.1113H165.883V59.4502H156.33V12.9297H165.752V19.0474H165.948C166.908 16.9536 168.326 15.3179 170.201 14.1401C172.099 12.9624 174.302 12.3735 176.81 12.3735ZM173.604 40.8682C175.981 40.8682 177.867 39.9303 179.263 38.0547C180.681 36.179 181.39 33.6491 181.39 30.4648C181.39 27.2806 180.681 24.7507 179.263 22.875C177.867 20.9775 175.981 20.0288 173.604 20.0288C171.27 20.0288 169.394 20.9884 167.977 22.9077C166.559 24.8052 165.85 27.3242 165.85 30.4648C165.85 33.6273 166.548 36.1572 167.944 38.0547C169.362 39.9303 171.248 40.8682 173.604 40.8682ZM211.715 41.6533C213.831 41.6533 215.619 41.0426 217.08 39.8213C218.563 38.5781 219.305 37.0187 219.305 35.1431V32.5913L211.911 33.0493C210.123 33.1802 208.738 33.6273 207.757 34.3906C206.797 35.154 206.317 36.1572 206.317 37.4004C206.317 38.709 206.808 39.745 207.789 40.5083C208.771 41.2716 210.079 41.6533 211.715 41.6533ZM208.575 48.5562C205.194 48.5562 202.391 47.5638 200.167 45.5791C197.942 43.5944 196.83 41.0426 196.83 37.9238C196.83 34.7396 198.008 32.2424 200.363 30.4321C202.719 28.6219 206.088 27.5859 210.472 27.3242L219.305 26.8008V24.478C219.305 22.8641 218.771 21.5991 217.702 20.6831C216.655 19.7671 215.227 19.3091 213.416 19.3091C211.672 19.3091 210.243 19.7017 209.131 20.4868C208.04 21.272 207.375 22.3298 207.135 23.6602H198.4C198.575 20.2142 200.047 17.4443 202.817 15.3506C205.587 13.235 209.262 12.1772 213.842 12.1772C218.334 12.1772 221.933 13.2459 224.637 15.3833C227.342 17.5207 228.694 20.356 228.694 23.8892V48H219.469V42.6348H219.272C218.313 44.4668 216.851 45.9172 214.888 46.9858C212.926 48.0327 210.821 48.5562 208.575 48.5562ZM254.603 41.2935V19.6035C251.702 19.6908 249.401 20.694 247.7 22.6133C245.999 24.5326 245.148 27.1497 245.148 30.4648C245.148 33.7799 245.988 36.3971 247.667 38.3164C249.369 40.2139 251.68 41.2062 254.603 41.2935ZM273.185 30.4648C273.185 27.1279 272.334 24.5107 270.633 22.6133C268.954 20.7158 266.653 19.7126 263.73 19.6035V41.2935C266.609 41.2062 268.899 40.203 270.601 38.2837C272.324 36.3644 273.185 33.7581 273.185 30.4648ZM254.505 48.5234C248.66 48.3926 244.025 46.7241 240.601 43.5181C237.199 40.312 235.498 35.95 235.498 30.4321C235.498 25.0015 237.21 20.6722 240.634 17.4443C244.08 14.2165 248.703 12.5371 254.505 12.4062V1.80664H263.829V12.4062C269.652 12.5371 274.265 14.2056 277.667 17.4116C281.091 20.6177 282.803 24.9688 282.803 30.4648C282.803 35.8955 281.08 40.2357 277.634 43.4854C274.21 46.7132 269.608 48.3926 263.829 48.5234V59.4502H254.505V48.5234ZM299.127 48H289.77V12.9297H299.127V34.8486H299.388L313.325 12.9297H322.681V48H313.325V25.8193H313.063L299.127 48ZM345.449 29.9741H351.175V20.0288H345.449C343.77 20.0288 342.429 20.4977 341.426 21.4355C340.444 22.3516 339.953 23.5838 339.953 25.1323C339.953 26.55 340.455 27.7168 341.458 28.6328C342.462 29.527 343.792 29.9741 345.449 29.9741ZM351.175 48V36.6807H347.347L339.561 48H328.961L338.187 35.2412C335.766 34.4779 333.868 33.2238 332.494 31.479C331.142 29.7124 330.466 27.5859 330.466 25.0996C330.466 21.3701 331.731 18.4149 334.261 16.2339C336.813 14.0311 340.226 12.9297 344.501 12.9297H360.498V48H351.175Z" fill="#272727"/>
</svg>
